<?xml version="1.0" standalone="yes"?>
<svg xmlns="http://www.w3.org/2000/svg" width="225" height="225">
<path style="fill:#ffffff; stroke:none;" d="M0 0L0 225L225 225L225 0L0 0z"/>
<path style="fill:#b2b2b2; stroke:none;" d="M43 14L44 15L43 14z"/>
<path style="fill:#606060; stroke:none;" d="M44 14L45 15L44 14z"/>
<path style="fill:#030303; stroke:none;" d="M79 158L84 157C82.7668 141.396 74.2018 130.612 66.1049 118C63.7993 114.408 63.3384 107.531 59.6968 105.179C55.7369 102.622 49.466 104.42 45 103.674C33.9074 101.821 24.1062 93.1582 16 85.9498C13.3649 83.6066 8.96534 80.9128 8.91589 76.9853C8.74159 63.1405 18.7864 50.3255 26.4853 40C29.2548 36.2857 30.834 31.5652 34.213 28.3403C37.9837 24.7414 46.6209 18.4994 51.9853 20.1674C56.9368 21.7071 61.2043 29.8156 57.2307 34.3966C53.5372 38.6548 44.9436 34.2286 40.3287 37.0278C31.834 42.1803 35.2045 53.234 34.9568 61C34.8571 64.1261 33.1083 68.6095 34.6073 71.5517C36.5163 75.299 44.5216 71.6935 48 72.5617C51.9533 73.5485 54.9623 77.0627 59 77.5926C64.1717 78.2713 68.559 75.1698 74 76.8001C79.7187 78.5137 84.8396 84.4628 90.9992 84.4421C98.3666 84.4174 100.522 75.688 98.9599 70C95.3614 56.8968 89.2311 29.9876 111 27.5617C123.489 26.17 132.395 41.9875 131.531 53C131.046 59.1828 127.052 65.7637 125.8 72C124.818 76.8932 127.614 83.4887 133.015 84.4614C140.069 85.7321 146.341 77.5901 153 76.341C157.595 75.4792 161.584 78.0983 166 77.6181C170.766 77.0999 174.145 72.7759 179 72.2539C182.18 71.912 186.747 74.6335 189.593 72.8788C193.04 70.7529 190.049 63.2227 190.129 60C190.307 52.7526 192.958 40.3088 183.895 36.6034C178.604 34.4402 171.677 36.4782 166 35C167.049 30.4904 166.132 24.7537 170.218 21.5995C176.234 16.9541 185.165 23.7159 189.945 27.5571C193.692 30.5678 195.196 35.181 197.924 39C204.924 48.798 218.474 64.4972 216.021 77.9853C215.334 81.7638 210.673 84.5771 208 86.9498C200.235 93.8434 191.445 101.254 181 103.482C176.28 104.489 169.468 102.451 165.314 105.179C161.755 107.517 161.57 114.463 159.211 118C150.682 130.792 142.993 141.245 141 157L146 158C148.752 143.394 155.637 134.156 163.451 122C165.455 118.883 166.313 113.135 169.43 111.028C173.228 108.459 180.523 109.539 185 108.215C196.169 104.913 217.255 92.3746 221.396 81C223.191 76.0682 220.145 70.69 218.885 66C215.645 53.9411 209.857 46.0414 202.785 36C198.967 30.5796 196.999 24.9503 191.003 21.3989C181.851 15.978 166.551 8.12859 161.656 23.9992C161.076 25.8794 161.193 27.7827 161.054 29.7145C159.752 47.8135 174.98 35.6651 182.362 43.3218C187.857 49.0215 185 59.8179 185 67L165 71.5633L150 71.5293L133 80C129.213 70.3933 135.362 64.269 136.786 55C137.724 48.8985 135.09 41.634 132.881 36C127.605 22.5443 109.078 17.6774 98.0934 27.3403C92.3924 32.3553 90.0661 40.81 88.4591 48C85.9112 59.3996 96.6166 68.5562 92 80L74 71.3287L59.4244 71.5633L40 67C40 59.9414 37.2723 48.8901 42.6381 43.3218C47.8304 37.9336 62.4755 46.2551 64.3719 34.9992C64.6721 33.2174 64.0757 31.3508 63.946 29.5756C63.7798 27.3014 63.8481 25.1695 62.9938 23C57.0926 8.01338 42.1231 16.0619 33.0031 21.99C27.9828 25.2532 26.0259 30.2558 22.7801 35C15.265 45.9844 -0.16966 65.2059 3.44907 80C6.30128 91.6604 29.1579 105.009 40 108.215C44.5503 109.561 51.7881 108.471 55.686 111.028C58.7639 113.047 59.7107 118.944 61.75 122C69.5448 133.682 77.166 143.564 79 158z"/>
<path style="fill:#606060; stroke:none;" d="M51.6667 14.3333L52.3333 14.6667L51.6667 14.3333z"/>
<path style="fill:#909090; stroke:none;" d="M53 14L54 15L53 14z"/>
<path style="fill:#b2b2b2; stroke:none;" d="M54 14L55 15L54 14M170.667 14.3333L171.333 14.6667L170.667 14.3333z"/>
<path style="fill:#909090; stroke:none;" d="M172 14L173 15L172 14z"/>
<path style="fill:#606060; stroke:none;" d="M173 14L174 15L173 14M180 14L181 15L180 14z"/>
<path style="fill:#b2b2b2; stroke:none;" d="M181 14L182 15L181 14z"/>
<path style="fill:#606060; stroke:none;" d="M42 15L43 16L42 15z"/>
<path style="fill:#909090; stroke:none;" d="M57 15L58 16L57 15M167 15L168 16L167 15z"/>
<path style="fill:#606060; stroke:none;" d="M182 15L183 16L182 15M166 16L167 17L166 16M183 16L184 17L183 16M59 17L60 18L59 17M165 17L166 18L165 17M39 18L40 19L39 18M60 18L61 19L60 18z"/>
<path style="fill:#909090; stroke:none;" d="M164 18L165 19L164 18z"/>
<path style="fill:#606060; stroke:none;" d="M185 18L186 19L185 18z"/>
<path style="fill:#b2b2b2; stroke:none;" d="M37 19L38 20L37 19z"/>
<path style="fill:#606060; stroke:none;" d="M38 19L39 20L38 19M46 19L46 20L50 20L46 19z"/>
<path style="fill:#b2b2b2; stroke:none;" d="M61 19L62 20L61 19M163 19L164 20L163 19z"/>
<path style="fill:#606060; stroke:none;" d="M176 19L176 20L179 20L176 19M186 19L187 20L186 19z"/>
<path style="fill:#909090; stroke:none;" d="M35 20L36 21L35 20z"/>
<path style="fill:#b2b2b2; stroke:none;" d="M45 20L46 21L45 20M54 20L55 21L54 20z"/>
<path style="fill:#909090; stroke:none;" d="M170 20L171 21L170 20z"/>
<path style="fill:#b2b2b2; stroke:none;" d="M171 20L172 21L171 20z"/>
<path style="fill:#909090; stroke:none;" d="M189 20L190 21L189 20z"/>
<path style="fill:#606060; stroke:none;" d="M33 21L34 22L33 21z"/>
<path style="fill:#b2b2b2; stroke:none;" d="M44 21L45 22L44 21M55 21L56 22L55 21z"/>
<path style="fill:#909090; stroke:none;" d="M62 21L63 22L62 21z"/>
<path style="fill:#b2b2b2; stroke:none;" d="M111.667 21.3333L112.333 21.6667L111.667 21.3333z"/>
<path style="fill:#909090; stroke:none;" d="M162 21L163 22L162 21M169 21L170 22L169 21z"/>
<path style="fill:#606060; stroke:none;" d="M191 21L192 22L191 21z"/>
<path style="fill:#b2b2b2; stroke:none;" d="M31 22L32 23L31 22M43 22L44 23L43 22z"/>
<path style="fill:#909090; stroke:none;" d="M56 22L57 23L56 22z"/>
<path style="fill:#b2b2b2; stroke:none;" d="M106 22L107 23L106 22z"/>
<path style="fill:#606060; stroke:none;" d="M107 22L108 23L107 22M115.667 22.3333L116.333 22.6667L115.667 22.3333z"/>
<path style="fill:#b2b2b2; stroke:none;" d="M117 22L118 23L117 22z"/>
<path style="fill:#606060; stroke:none;" d="M168 22L169 23L168 22z"/>
<path style="fill:#b2b2b2; stroke:none;" d="M193 22L194 23L193 22z"/>
<path style="fill:#909090; stroke:none;" d="M30 23L31 24L30 23z"/>
<path style="fill:#b2b2b2; stroke:none;" d="M42 23L43 24L42 23z"/>
<path style="fill:#909090; stroke:none;" d="M63 23L64 24L63 23z"/>
<path style="fill:#b2b2b2; stroke:none;" d="M103 23L104 24L103 23z"/>
<path style="fill:#606060; stroke:none;" d="M104 23L105 24L104 23M119 23L120 24L119 23z"/>
<path style="fill:#b2b2b2; stroke:none;" d="M120 23L121 24L120 23M161 23L162 24L161 23z"/>
<path style="fill:#909090; stroke:none;" d="M194 23L195 24L194 23z"/>
<path style="fill:#606060; stroke:none;" d="M29 24L30 25L29 24M40 24L41 25L40 24z"/>
<path style="fill:#b2b2b2; stroke:none;" d="M57 24L58 25L57 24M101 24L102 25L101 24z"/>
<path style="fill:#909090; stroke:none;" d="M122 24L123 25L122 24M167 24L168 25L167 24z"/>
<path style="fill:#606060; stroke:none;" d="M184 24L185 25L184 24M195 24L196 25L195 24M28 25L29 26L28 25M37 25L38 26L37 25z"/>
<path style="fill:#b2b2b2; stroke:none;" d="M38 25L39 26L38 25z"/>
<path style="fill:#606060; stroke:none;" d="M58 25L59 26L58 25z"/>
<path style="fill:#b2b2b2; stroke:none;" d="M64 25L64 29L65 29L64 25z"/>
<path style="fill:#606060; stroke:none;" d="M100 25L101 26L100 25z"/>
<path style="fill:#b2b2b2; stroke:none;" d="M124 25L125 26L124 25M186 25L187 26L186 25z"/>
<path style="fill:#606060; stroke:none;" d="M187 25L188 26L187 25M196 25L197 26L196 25z"/>
<path style="fill:#909090; stroke:none;" d="M27 26L28 27L27 26z"/>
<path style="fill:#b2b2b2; stroke:none;" d="M36 26L37 27L36 26M58.3333 26.6667L58.6667 27.3333L58.3333 26.6667M98 26L99 27L98 26z"/>
<path style="fill:#606060; stroke:none;" d="M125 26L126 27L125 26z"/>
<path style="fill:#b2b2b2; stroke:none;" d="M160.333 26.6667L160.667 27.3333L160.333 26.6667z"/>
<path style="fill:#909090; stroke:none;" d="M166 26L167 27L166 26M197 26L198 27L197 26z"/>
<path style="fill:#606060; stroke:none;" d="M34 27L35 28L34 27z"/>
<path style="fill:#909090; stroke:none;" d="M97 27L98 28L97 27z"/>
<path style="fill:#606060; stroke:none;" d="M110 27L111 28L110 27z"/>
<path style="fill:#909090; stroke:none;" d="M111 27L111 28L114 28L111 27z"/>
<path style="fill:#606060; stroke:none;" d="M114 27L115 28L114 27z"/>
<path style="fill:#b2b2b2; stroke:none;" d="M127 27L128 28L127 27z"/>
<path style="fill:#606060; stroke:none;" d="M166 27L167 28L166 27z"/>
<path style="fill:#909090; stroke:none;" d="M190 27L191 28L190 27M26 28L27 29L26 28z"/>
<path style="fill:#b2b2b2; stroke:none;" d="M33 28L34 29L33 28z"/>
<path style="fill:#606060; stroke:none;" d="M58 28L59 29L58 28z"/>
<path style="fill:#909090; stroke:none;" d="M96 28L97 29L96 28z"/>
<path style="fill:#606060; stroke:none;" d="M106 28L107 29L106 28z"/>
<path style="fill:#b2b2b2; stroke:none;" d="M107 28L108 29L107 28z"/>
<path style="fill:#909090; stroke:none;" d="M117 28L118 29L117 28z"/>
<path style="fill:#b2b2b2; stroke:none;" d="M128 28L129 29L128 28M191 28L192 29L191 28z"/>
<path style="fill:#909090; stroke:none;" d="M198 28L199 29L198 28z"/>
<path style="fill:#b2b2b2; stroke:none;" d="M32 29L33 30L32 29M95 29L96 30L95 29z"/>
<path style="fill:#606060; stroke:none;" d="M104 29L105 30L104 29z"/>
<path style="fill:#b2b2b2; stroke:none;" d="M119 29L120 30L119 29z"/>
<path style="fill:#606060; stroke:none;" d="M120 29L121 30L120 29z"/>
<path style="fill:#b2b2b2; stroke:none;" d="M129 29L130 30L129 29M192 29L193 30L192 29M25 30L26 31L25 30z"/>
<path style="fill:#606060; stroke:none;" d="M63 30L64 31L63 30z"/>
<path style="fill:#b2b2b2; stroke:none;" d="M103 30L104 31L103 30M121 30L122 31L121 30z"/>
<path style="fill:#606060; stroke:none;" d="M161 30L162 31L161 30z"/>
<path style="fill:#b2b2b2; stroke:none;" d="M167 30L168 31L167 30z"/>
<path style="fill:#606060; stroke:none;" d="M193 30L194 31L193 30z"/>
<path style="fill:#b2b2b2; stroke:none;" d="M199 30L200 31L199 30M31 31L32 32L31 31M64 31L65 32L64 31z"/>
<path style="fill:#606060; stroke:none;" d="M94 31L95 32L94 31M101 31L102 32L101 31M123 31L124 32L123 31M130 31L131 32L130 31z"/>
<path style="fill:#b2b2b2; stroke:none;" d="M193 31L194 32L193 31M24 32L25 33L24 32z"/>
<path style="fill:#606060; stroke:none;" d="M58 32L59 33L58 32M64 32L65 33L64 32z"/>
<path style="fill:#b2b2b2; stroke:none;" d="M93 32L94 33L93 32z"/>
<path style="fill:#606060; stroke:none;" d="M124 32L125 33L124 32z"/>
<path style="fill:#b2b2b2; stroke:none;" d="M131 32L132 33L131 32z"/>
<path style="fill:#909090; stroke:none;" d="M160 32L161 33L160 32z"/>
<path style="fill:#b2b2b2; stroke:none;" d="M200 32L201 33L200 32z"/>
<path style="fill:#606060; stroke:none;" d="M30 33L31 34L30 33M125 33L126 34L125 33z"/>
<path style="fill:#b2b2b2; stroke:none;" d="M166 33L167 34L166 33M194 33L195 34L194 33z"/>
<path style="fill:#606060; stroke:none;" d="M23 34L24 35L23 34z"/>
<path style="fill:#b2b2b2; stroke:none;" d="M92 34L93 35L92 34M99 34L100 35L99 34M132 34L133 35L132 34z"/>
<path style="fill:#606060; stroke:none;" d="M201 34L202 35L201 34z"/>
<path style="fill:#b2b2b2; stroke:none;" d="M22 35L23 36L22 35z"/>
<path style="fill:#606060; stroke:none;" d="M29 35L30 36L29 35z"/>
<path style="fill:#b2b2b2; stroke:none;" d="M41 35L42 36L41 35z"/>
<path style="fill:#909090; stroke:none;" d="M42 35L42 36L45 36L42 35z"/>
<path style="fill:#b2b2b2; stroke:none;" d="M45.6667 35.3333L46.3333 35.6667L45.6667 35.3333M57 35L58 36L57 35z"/>
<path style="fill:#606060; stroke:none;" d="M98 35L99 36L98 35z"/>
<path style="fill:#909090; stroke:none;" d="M126 35L127 36L126 35z"/>
<path style="fill:#b2b2b2; stroke:none;" d="M167 35L168 36L167 35M179.667 35.3333L180.333 35.6667L179.667 35.3333z"/>
<path style="fill:#909090; stroke:none;" d="M181.667 35.3333L182.333 35.6667L181.667 35.3333z"/>
<path style="fill:#b2b2b2; stroke:none;" d="M183 35L184 36L183 35z"/>
<path style="fill:#909090; stroke:none;" d="M195 35L196 36L195 35z"/>
<path style="fill:#b2b2b2; stroke:none;" d="M202 35L203 36L202 35z"/>
<path style="fill:#909090; stroke:none;" d="M64 36L65 37L64 36z"/>
<path style="fill:#b2b2b2; stroke:none;" d="M91 36L92 37L91 36M133 36L134 37L133 36z"/>
<path style="fill:#909090; stroke:none;" d="M160 36L161 37L160 36z"/>
<path style="fill:#606060; stroke:none;" d="M171.667 36.3333L172.333 36.6667L171.667 36.3333z"/>
<path style="fill:#b2b2b2; stroke:none;" d="M28 37L29 38L28 37z"/>
<path style="fill:#606060; stroke:none;" d="M91 37L92 38L91 37M97 37L98 38L97 37z"/>
<path style="fill:#909090; stroke:none;" d="M127 37L128 38L127 37z"/>
<path style="fill:#606060; stroke:none;" d="M133 37L134 38L133 37M203 37L204 38L203 37M20 38L21 39L20 38z"/>
<path style="fill:#909090; stroke:none;" d="M27 38L28 39L27 38z"/>
<path style="fill:#606060; stroke:none;" d="M38 38L39 39L38 38z"/>
<path style="fill:#b2b2b2; stroke:none;" d="M63 38L64 39L63 38M97 38L98 39L97 38z"/>
<path style="fill:#909090; stroke:none;" d="M197 38L198 39L197 38z"/>
<path style="fill:#606060; stroke:none;" d="M204 38L205 39L204 38z"/>
<path style="fill:#909090; stroke:none;" d="M19 39L20 40L19 39z"/>
<path style="fill:#b2b2b2; stroke:none;" d="M37 39L38 40L37 39M62 39L63 40L62 39M90 39L91 40L90 39z"/>
<path style="fill:#606060; stroke:none;" d="M128 39L129 40L128 39z"/>
<path style="fill:#b2b2b2; stroke:none;" d="M134 39L135 40L134 39M162 39L163 40L162 39z"/>
<path style="fill:#909090; stroke:none;" d="M187 39L188 40L187 39z"/>
<path style="fill:#606060; stroke:none;" d="M198 39L199 40L198 39z"/>
<path style="fill:#909090; stroke:none;" d="M205 39L206 40L205 39z"/>
<path style="fill:#b2b2b2; stroke:none;" d="M18 40L19 41L18 40z"/>
<path style="fill:#606060; stroke:none;" d="M60 40L61 41L60 40z"/>
<path style="fill:#909090; stroke:none;" d="M90 40L91 41L90 40M96 40L97 41L96 40z"/>
<path style="fill:#b2b2b2; stroke:none;" d="M128 40L129 41L128 40z"/>
<path style="fill:#909090; stroke:none;" d="M134 40L135 41L134 40z"/>
<path style="fill:#606060; stroke:none;" d="M164 40L165 41L164 40z"/>
<path style="fill:#b2b2b2; stroke:none;" d="M206 40L207 41L206 40M25 41L26 42L25 41M36 41L37 42L36 41M43.6667 41.3333L44.3333 41.6667L43.6667 41.3333z"/>
<path style="fill:#909090; stroke:none;" d="M45.6667 41.3333L46.3333 41.6667L45.6667 41.3333z"/>
<path style="fill:#606060; stroke:none;" d="M47.6667 41.3333L48.3333 41.6667L47.6667 41.3333M56 41L57 42L56 41z"/>
<path style="fill:#909090; stroke:none;" d="M57 41L58 42L57 41z"/>
<path style="fill:#b2b2b2; stroke:none;" d="M58 41L59 42L58 41z"/>
<path style="fill:#606060; stroke:none;" d="M90 41L91 42L90 41z"/>
<path style="fill:#b2b2b2; stroke:none;" d="M96 41L97 42L96 41z"/>
<path style="fill:#606060; stroke:none;" d="M134 41L135 42L134 41z"/>
<path style="fill:#b2b2b2; stroke:none;" d="M166 41L167 42L166 41z"/>
<path style="fill:#606060; stroke:none;" d="M167 41L168 42L167 41M176.667 41.3333L177.333 41.6667L176.667 41.3333z"/>
<path style="fill:#909090; stroke:none;" d="M178.667 41.3333L179.333 41.6667L178.667 41.3333z"/>
<path style="fill:#b2b2b2; stroke:none;" d="M180.667 41.3333L181.333 41.6667L180.667 41.3333z"/>
<path style="fill:#606060; stroke:none;" d="M188 41L189 42L188 41z"/>
<path style="fill:#b2b2b2; stroke:none;" d="M199 41L200 42L199 41z"/>
<path style="fill:#909090; stroke:none;" d="M24 42L25 43L24 42z"/>
<path style="fill:#606060; stroke:none;" d="M42 42L43 43L42 42M182 42L183 43L182 42z"/>
<path style="fill:#b2b2b2; stroke:none;" d="M200 42L201 43L200 42z"/>
<path style="fill:#606060; stroke:none;" d="M16 43L17 44L16 43M23 43L24 44L23 43z"/>
<path style="fill:#b2b2b2; stroke:none;" d="M35 43L36 44L35 43z"/>
<path style="fill:#606060; stroke:none;" d="M129 43L129 47L130 47L129 43z"/>
<path style="fill:#909090; stroke:none;" d="M189 43L190 44L189 43M201 43L202 44L201 43z"/>
<path style="fill:#606060; stroke:none;" d="M208 43L209 44L208 43z"/>
<path style="fill:#b2b2b2; stroke:none;" d="M15 44L16 45L15 44z"/>
<path style="fill:#606060; stroke:none;" d="M22 44L23 45L22 44z"/>
<path style="fill:#909090; stroke:none;" d="M41 44L42 45L41 44M183 44L184 45L183 44z"/>
<path style="fill:#606060; stroke:none;" d="M202 44L203 45L202 44z"/>
<path style="fill:#909090; stroke:none;" d="M209 44L210 45L209 44z"/>
<path style="fill:#b2b2b2; stroke:none;" d="M34 45L35 46L34 45z"/>
<path style="fill:#606060; stroke:none;" d="M89 45L90 46L89 45M135 45L136 46L135 45z"/>
<path style="fill:#b2b2b2; stroke:none;" d="M190 45L191 46L190 45z"/>
<path style="fill:#606060; stroke:none;" d="M14 46L15 47L14 46z"/>
<path style="fill:#b2b2b2; stroke:none;" d="M21 46L22 47L21 46z"/>
<path style="fill:#606060; stroke:none;" d="M34 46L35 47L34 46z"/>
<path style="fill:#909090; stroke:none;" d="M40 46L41 47L40 46M88 46L89 47L88 46z"/>
<path style="fill:#b2b2b2; stroke:none;" d="M136 46L137 47L136 46z"/>
<path style="fill:#909090; stroke:none;" d="M184 46L185 47L184 46M13 47L14 48L13 47M20 47L21 48L20 47z"/>
<path style="fill:#606060; stroke:none;" d="M95 47L96 48L95 47z"/>
<path style="fill:#909090; stroke:none;" d="M129 47L130 48L129 47z"/>
<path style="fill:#b2b2b2; stroke:none;" d="M191 47L192 48L191 47M204 47L205 48L204 47z"/>
<path style="fill:#909090; stroke:none;" d="M211 47L212 48L211 47z"/>
<path style="fill:#606060; stroke:none;" d="M19 48L20 49L19 48z"/>
<path style="fill:#b2b2b2; stroke:none;" d="M33 48L33 51L34 51L33 48z"/>
<path style="fill:#909090; stroke:none;" d="M39 48L40 49L39 48z"/>
<path style="fill:#b2b2b2; stroke:none;" d="M87 48L88 49L87 48z"/>
<path style="fill:#606060; stroke:none;" d="M130 48L131 49L130 48z"/>
<path style="fill:#b2b2b2; stroke:none;" d="M137 48L138 49L137 48z"/>
<path style="fill:#909090; stroke:none;" d="M185 48L186 49L185 48M191.333 48.6667L191.667 49.3333L191.333 48.6667z"/>
<path style="fill:#606060; stroke:none;" d="M205 48L206 49L205 48M12 49L13 50L12 49z"/>
<path style="fill:#b2b2b2; stroke:none;" d="M39.3333 49.6667L39.6667 50.3333L39.3333 49.6667z"/>
<path style="fill:#909090; stroke:none;" d="M87 49L87 53L88 53L87 49z"/>
<path style="fill:#606060; stroke:none;" d="M93 49L94 50L93 49z"/>
<path style="fill:#909090; stroke:none;" d="M131 49L132 50L131 49M137 49L138 50L137 49z"/>
<path style="fill:#b2b2b2; stroke:none;" d="M185.333 49.6667L185.667 50.3333L185.333 49.6667z"/>
<path style="fill:#606060; stroke:none;" d="M212 49L213 50L212 49z"/>
<path style="fill:#b2b2b2; stroke:none;" d="M11 50L12 51L11 50M18 50L19 51L18 50M93 50L93 53L94 53L93 50z"/>
<path style="fill:#606060; stroke:none;" d="M137.333 50.6667L137.667 51.3333L137.333 50.6667z"/>
<path style="fill:#b2b2b2; stroke:none;" d="M191 50L191 53L192 53L191 50M206 50L207 51L206 50M213 50L214 51L213 50z"/>
<path style="fill:#606060; stroke:none;" d="M11 51L12 52L11 51M17 51L18 52L17 51z"/>
<path style="fill:#909090; stroke:none;" d="M39 51L40 52L39 51M185 51L186 52L185 51z"/>
<path style="fill:#606060; stroke:none;" d="M207 51L208 52L207 51z"/>
<path style="fill:#b2b2b2; stroke:none;" d="M10 52L11 53L10 52z"/>
<path style="fill:#606060; stroke:none;" d="M39 52L40 53L39 52z"/>
<path style="fill:#909090; stroke:none;" d="M137 52L138 53L137 52z"/>
<path style="fill:#606060; stroke:none;" d="M185.333 52.6667L185.667 53.3333L185.333 52.6667z"/>
<path style="fill:#b2b2b2; stroke:none;" d="M214 52L215 53L214 52z"/>
<path style="fill:#606060; stroke:none;" d="M10 53L11 54L10 53M16 53L17 54L16 53z"/>
<path style="fill:#b2b2b2; stroke:none;" d="M87.3333 53.6667L87.6667 54.3333L87.3333 53.6667z"/>
<path style="fill:#909090; stroke:none;" d="M93 53L94 54L93 53z"/>
<path style="fill:#b2b2b2; stroke:none;" d="M131 53L132 54L131 53M137.333 53.6667L137.667 54.3333L137.333 53.6667z"/>
<path style="fill:#909090; stroke:none;" d="M208 53L209 54L208 53z"/>
<path style="fill:#b2b2b2; stroke:none;" d="M9 54L10 55L9 54z"/>
<path style="fill:#606060; stroke:none;" d="M34.3333 54.6667L34.6667 55.3333L34.3333 54.6667z"/>
<path style="fill:#909090; stroke:none;" d="M131 54L132 55L131 54z"/>
<path style="fill:#b2b2b2; stroke:none;" d="M215 54L216 55L215 54z"/>
<path style="fill:#606060; stroke:none;" d="M9 55L10 56L9 55M15 55L16 56L15 55z"/>
<path style="fill:#909090; stroke:none;" d="M209 55L210 56L209 55z"/>
<path style="fill:#606060; stroke:none;" d="M215 55L216 56L215 55z"/>
<path style="fill:#909090; stroke:none;" d="M34 56L35 57L34 56z"/>
<path style="fill:#b2b2b2; stroke:none;" d="M40.3333 56.6667L40.6667 57.3333L40.3333 56.6667z"/>
<path style="fill:#606060; stroke:none;" d="M88 56L89 57L88 56M94 56L95 57L94 56z"/>
<path style="fill:#b2b2b2; stroke:none;" d="M130 56L131 57L130 56M184.333 56.6667L184.667 57.3333L184.333 56.6667z"/>
<path style="fill:#606060; stroke:none;" d="M190 56L191 57L190 56M8 57L9 58L8 57M14 57L15 58L14 57z"/>
<path style="fill:#b2b2b2; stroke:none;" d="M34 57L35 58L34 57M88 57L89 58L88 57z"/>
<path style="fill:#606060; stroke:none;" d="M130 57L131 58L130 57z"/>
<path style="fill:#909090; stroke:none;" d="M136 57L137 58L136 57M190 57L191 58L190 57M210 57L211 58L210 57z"/>
<path style="fill:#606060; stroke:none;" d="M216 57L217 58L216 57z"/>
<path style="fill:#b2b2b2; stroke:none;" d="M14 58L15 59L14 58z"/>
<path style="fill:#606060; stroke:none;" d="M40 58L40 62L41 62L40 58M95 58L96 59L95 58z"/>
<path style="fill:#b2b2b2; stroke:none;" d="M129 58L130 59L129 58z"/>
<path style="fill:#909090; stroke:none;" d="M184 58L185 59L184 58z"/>
<path style="fill:#b2b2b2; stroke:none;" d="M190.333 58.6667L190.667 59.3333L190.333 58.6667M7 59L8 60L7 59z"/>
<path style="fill:#606060; stroke:none;" d="M13 59L14 60L13 59z"/>
<path style="fill:#909090; stroke:none;" d="M89 59L90 60L89 59z"/>
<path style="fill:#b2b2b2; stroke:none;" d="M96 59L97 60L96 59z"/>
<path style="fill:#909090; stroke:none;" d="M135 59L136 60L135 59z"/>
<path style="fill:#606060; stroke:none;" d="M184 59L184 62L185 62L184 59M211 59L212 60L211 59z"/>
<path style="fill:#b2b2b2; stroke:none;" d="M217 59L218 60L217 59z"/>
<path style="fill:#606060; stroke:none;" d="M7 60L8 61L7 60z"/>
<path style="fill:#b2b2b2; stroke:none;" d="M13 60L14 61L13 60z"/>
<path style="fill:#909090; stroke:none;" d="M128 60L129 61L128 60z"/>
<path style="fill:#b2b2b2; stroke:none;" d="M211 60L212 61L211 60z"/>
<path style="fill:#606060; stroke:none;" d="M217 60L218 61L217 60z"/>
<path style="fill:#b2b2b2; stroke:none;" d="M90 61L91 62L90 61M97 61L98 62L97 61M134 61L135 62L134 61M190.333 61.6667L190.667 62.3333L190.333 61.6667M6 62L7 63L6 62z"/>
<path style="fill:#606060; stroke:none;" d="M12 62L13 63L12 62z"/>
<path style="fill:#909090; stroke:none;" d="M40 62L41 63L40 62z"/>
<path style="fill:#606060; stroke:none;" d="M91 62L92 63L91 62z"/>
<path style="fill:#909090; stroke:none;" d="M97 62L98 63L97 62z"/>
<path style="fill:#b2b2b2; stroke:none;" d="M127.333 62.6667L127.667 63.3333L127.333 62.6667z"/>
<path style="fill:#606060; stroke:none;" d="M133 62L134 63L133 62z"/>
<path style="fill:#909090; stroke:none;" d="M184 62L185 63L184 62M212 62L213 63L212 62z"/>
<path style="fill:#b2b2b2; stroke:none;" d="M218 62L219 63L218 62z"/>
<path style="fill:#909090; stroke:none;" d="M6 63L7 64L6 63z"/>
<path style="fill:#b2b2b2; stroke:none;" d="M12 63L13 64L12 63M34 63L35 64L34 63M40.3333 63.6667L40.6667 64.3333L40.3333 63.6667M91 63L92 64L91 63z"/>
<path style="fill:#606060; stroke:none;" d="M97 63L97 66L98 66L97 63z"/>
<path style="fill:#b2b2b2; stroke:none;" d="M133 63L134 64L133 63M184.333 63.6667L184.667 64.3333L184.333 63.6667z"/>
<path style="fill:#909090; stroke:none;" d="M190 63L191 64L190 63z"/>
<path style="fill:#b2b2b2; stroke:none;" d="M212 63L213 64L212 63z"/>
<path style="fill:#909090; stroke:none;" d="M218 63L219 64L218 63z"/>
<path style="fill:#606060; stroke:none;" d="M6 64L7 65L6 64z"/>
<path style="fill:#909090; stroke:none;" d="M34 64L35 65L34 64M127.333 64.6667L127.667 65.3333L127.333 64.6667z"/>
<path style="fill:#606060; stroke:none;" d="M190 64L191 65L190 64M218 64L219 65L218 64M34 65L35 66L34 65M213 65L214 66L213 65z"/>
<path style="fill:#b2b2b2; stroke:none;" d="M5 66L6 67L5 66z"/>
<path style="fill:#606060; stroke:none;" d="M11 66L12 67L11 66z"/>
<path style="fill:#b2b2b2; stroke:none;" d="M41.6667 66.3333L42.3333 66.6667L41.6667 66.3333z"/>
<path style="fill:#909090; stroke:none;" d="M43 66L43 67L47 67L43 66z"/>
<path style="fill:#b2b2b2; stroke:none;" d="M47 66L48 67L47 66z"/>
<path style="fill:#606060; stroke:none;" d="M127 66L128 67L127 66z"/>
<path style="fill:#b2b2b2; stroke:none;" d="M177.667 66.3333L178.333 66.6667L177.667 66.3333z"/>
<path style="fill:#909090; stroke:none;" d="M179 66L179 67L182 67L179 66z"/>
<path style="fill:#b2b2b2; stroke:none;" d="M182.667 66.3333L183.333 66.6667L182.667 66.3333z"/>
<path style="fill:#909090; stroke:none;" d="M213 66L214 67L213 66z"/>
<path style="fill:#b2b2b2; stroke:none;" d="M219 66L220 67L219 66z"/>
<path style="fill:#909090; stroke:none;" d="M5 67L6 68L5 67z"/>
<path style="fill:#b2b2b2; stroke:none;" d="M11 67L12 68L11 67z"/>
<path style="fill:#606060; stroke:none;" d="M50 67L51 68L50 67z"/>
<path style="fill:#b2b2b2; stroke:none;" d="M51 67L52 68L51 67M173 67L174 68L173 67z"/>
<path style="fill:#606060; stroke:none;" d="M174 67L175 68L174 67z"/>
<path style="fill:#b2b2b2; stroke:none;" d="M191.333 67.6667L191.667 68.3333L191.333 67.6667M213 67L214 68L213 67z"/>
<path style="fill:#909090; stroke:none;" d="M219 67L220 68L219 67z"/>
<path style="fill:#606060; stroke:none;" d="M5 68L6 69L5 68z"/>
<path style="fill:#b2b2b2; stroke:none;" d="M33.3333 68.6667L33.6667 69.3333L33.3333 68.6667z"/>
<path style="fill:#909090; stroke:none;" d="M53 68L54 69L53 68z"/>
<path style="fill:#606060; stroke:none;" d="M92 68L93 69L92 68z"/>
<path style="fill:#909090; stroke:none;" d="M98 68L99 69L98 68z"/>
<path style="fill:#b2b2b2; stroke:none;" d="M126 68L127 69L126 68z"/>
<path style="fill:#606060; stroke:none;" d="M132 68L133 69L132 68z"/>
<path style="fill:#909090; stroke:none;" d="M171 68L172 69L171 68z"/>
<path style="fill:#606060; stroke:none;" d="M219 68L220 69L219 68z"/>
<path style="fill:#909090; stroke:none;" d="M55 69L56 70L55 69z"/>
<path style="fill:#b2b2b2; stroke:none;" d="M92 69L93 70L92 69z"/>
<path style="fill:#606060; stroke:none;" d="M126 69L127 70L126 69z"/>
<path style="fill:#b2b2b2; stroke:none;" d="M132 69L133 70L132 69M169 69L170 70L169 69z"/>
<path style="fill:#606060; stroke:none;" d="M191.333 69.6667L191.667 70.3333L191.333 69.6667M10 70L11 71L10 70z"/>
<path style="fill:#909090; stroke:none;" d="M33.3333 70.6667L33.6667 71.3333L33.3333 70.6667z"/>
<path style="fill:#b2b2b2; stroke:none;" d="M65 70L66 71L65 70z"/>
<path style="fill:#909090; stroke:none;" d="M66 70L66 71L70 71L66 70z"/>
<path style="fill:#b2b2b2; stroke:none;" d="M70 70L70 71L73 71L70 70M99 70L100 71L99 70M153 70L153 71L160 71L153 70z"/>
<path style="fill:#606060; stroke:none;" d="M168 70L169 71L168 70z"/>
<path style="fill:#909090; stroke:none;" d="M214 70L215 71L214 70z"/>
<path style="fill:#b2b2b2; stroke:none;" d="M220 70L221 71L220 70M4 71L5 72L4 71z"/>
<path style="fill:#909090; stroke:none;" d="M10 71L11 72L10 71z"/>
<path style="fill:#b2b2b2; stroke:none;" d="M58 71L59 72L58 71M61 71L62 72L61 71z"/>
<path style="fill:#606060; stroke:none;" d="M62 71L63 72L62 71M75 71L76 72L75 71z"/>
<path style="fill:#909090; stroke:none;" d="M76 71L77 72L76 71z"/>
<path style="fill:#606060; stroke:none;" d="M93 71L94 72L93 71M99 71L100 72L99 71z"/>
<path style="fill:#b2b2b2; stroke:none;" d="M125 71L126 72L125 71z"/>
<path style="fill:#606060; stroke:none;" d="M131 71L132 72L131 71z"/>
<path style="fill:#b2b2b2; stroke:none;" d="M148 71L149 72L148 71z"/>
<path style="fill:#606060; stroke:none;" d="M149 71L150 72L149 71M162 71L163 72L162 71z"/>
<path style="fill:#b2b2b2; stroke:none;" d="M163 71L164 72L163 71M166 71L167 72L166 71M214 71L215 72L214 71z"/>
<path style="fill:#909090; stroke:none;" d="M220 71L221 72L220 71z"/>
<path style="fill:#606060; stroke:none;" d="M4 72L5 73L4 72z"/>
<path style="fill:#b2b2b2; stroke:none;" d="M10 72L11 73L10 72M33 72L34 73L33 72z"/>
<path style="fill:#909090; stroke:none;" d="M41 72L42 73L41 72z"/>
<path style="fill:#b2b2b2; stroke:none;" d="M42 72L43 73L42 72M46.6667 72.3333L47.3333 72.6667L46.6667 72.3333z"/>
<path style="fill:#606060; stroke:none;" d="M48 72L49 73L48 72M59 72L60 73L59 72M78 72L79 73L78 72z"/>
<path style="fill:#b2b2b2; stroke:none;" d="M79 72L80 73L79 72M93 72L94 73L93 72z"/>
<path style="fill:#606060; stroke:none;" d="M125 72L126 73L125 72z"/>
<path style="fill:#b2b2b2; stroke:none;" d="M131 72L132 73L131 72M145 72L146 73L145 72z"/>
<path style="fill:#606060; stroke:none;" d="M146 72L147 73L146 72M164 72L165 73L164 72z"/>
<path style="fill:#909090; stroke:none;" d="M165 72L166 73L165 72z"/>
<path style="fill:#606060; stroke:none;" d="M176 72L177 73L176 72z"/>
<path style="fill:#909090; stroke:none;" d="M177 72L178 73L177 72z"/>
<path style="fill:#b2b2b2; stroke:none;" d="M178.667 72.3333L179.333 72.6667L178.667 72.3333M181.667 72.3333L182.333 72.6667L181.667 72.3333z"/>
<path style="fill:#909090; stroke:none;" d="M183 72L184 73L183 72z"/>
<path style="fill:#606060; stroke:none;" d="M191 72L192 73L191 72z"/>
<path style="fill:#b2b2b2; stroke:none;" d="M3 73L4 74L3 73M34 73L35 74L34 73z"/>
<path style="fill:#606060; stroke:none;" d="M35 73L36 74L35 73M38 73L39 74L38 73z"/>
<path style="fill:#b2b2b2; stroke:none;" d="M39 73L40 74L39 73M50 73L51 74L50 73z"/>
<path style="fill:#606060; stroke:none;" d="M51 73L52 74L51 73M80 73L81 74L80 73z"/>
<path style="fill:#b2b2b2; stroke:none;" d="M100 73L100 76L101 76L100 73z"/>
<path style="fill:#606060; stroke:none;" d="M144 73L145 74L144 73z"/>
<path style="fill:#909090; stroke:none;" d="M174 73L175 74L174 73z"/>
<path style="fill:#b2b2b2; stroke:none;" d="M185 73L186 74L185 73z"/>
<path style="fill:#606060; stroke:none;" d="M186 73L187 74L186 73z"/>
<path style="fill:#b2b2b2; stroke:none;" d="M190 73L191 74L190 73M221 73L222 74L221 73z"/>
<path style="fill:#606060; stroke:none;" d="M3 74L4 75L3 74M9 74L10 75L9 74z"/>
<path style="fill:#b2b2b2; stroke:none;" d="M52 74L53 75L52 74z"/>
<path style="fill:#909090; stroke:none;" d="M82 74L83 75L82 74M94 74L95 75L94 74M130 74L131 75L130 74M142 74L143 75L142 74M172 74L173 75L172 74z"/>
<path style="fill:#b2b2b2; stroke:none;" d="M215 74L216 75L215 74z"/>
<path style="fill:#606060; stroke:none;" d="M54 75L55 76L54 75z"/>
<path style="fill:#b2b2b2; stroke:none;" d="M84 75L85 76L84 75z"/>
<path style="fill:#606060; stroke:none;" d="M141 75L142 76L141 75z"/>
<path style="fill:#b2b2b2; stroke:none;" d="M222 75L223 76L222 75z"/>
<path style="fill:#909090; stroke:none;" d="M2 76L3 77L2 76z"/>
<path style="fill:#606060; stroke:none;" d="M8 76L9 77L8 76z"/>
<path style="fill:#b2b2b2; stroke:none;" d="M55 76L56 77L55 76z"/>
<path style="fill:#606060; stroke:none;" d="M64 76L65 77L64 76z"/>
<path style="fill:#b2b2b2; stroke:none;" d="M65.6667 76.3333L66.3333 76.6667L65.6667 76.3333M70.6667 76.3333L71.3333 76.6667L70.6667 76.3333z"/>
<path style="fill:#909090; stroke:none;" d="M72 76L73 77L72 76z"/>
<path style="fill:#606060; stroke:none;" d="M73 76L74 77L73 76M85 76L86 77L85 76z"/>
<path style="fill:#909090; stroke:none;" d="M93 76L94 77L93 76z"/>
<path style="fill:#606060; stroke:none;" d="M125 76L126 77L125 76z"/>
<path style="fill:#909090; stroke:none;" d="M131 76L132 77L131 76M139 76L140 77L139 76z"/>
<path style="fill:#606060; stroke:none;" d="M151.667 76.3333L152.333 76.6667L151.667 76.3333z"/>
<path style="fill:#909090; stroke:none;" d="M153 76L154 77L153 76z"/>
<path style="fill:#b2b2b2; stroke:none;" d="M154 76L154 77L159 77L154 76z"/>
<path style="fill:#909090; stroke:none;" d="M159 76L160 77L159 76z"/>
<path style="fill:#606060; stroke:none;" d="M160 76L161 77L160 76M169 76L170 77L169 76z"/>
<path style="fill:#b2b2b2; stroke:none;" d="M216 76L217 77L216 76z"/>
<path style="fill:#606060; stroke:none;" d="M222 76L222 80L223 80L222 76M2.33333 77.6667L2.66667 78.3333L2.33333 77.6667z"/>
<path style="fill:#b2b2b2; stroke:none;" d="M56 77L57 78L56 77z"/>
<path style="fill:#909090; stroke:none;" d="M62 77L63 78L62 77M76 77L77 78L76 77z"/>
<path style="fill:#b2b2b2; stroke:none;" d="M87 77L88 78L87 77z"/>
<path style="fill:#909090; stroke:none;" d="M99 77L100 78L99 77z"/>
<path style="fill:#b2b2b2; stroke:none;" d="M125 77L126 78L125 77M137 77L138 78L137 77z"/>
<path style="fill:#606060; stroke:none;" d="M148 77L149 78L148 77z"/>
<path style="fill:#b2b2b2; stroke:none;" d="M149 77L150 78L149 77z"/>
<path style="fill:#909090; stroke:none;" d="M162 77L163 78L162 77M168 77L169 78L168 77z"/>
<path style="fill:#b2b2b2; stroke:none;" d="M8 78L9 79L8 78M58 78L59 79L58 78z"/>
<path style="fill:#909090; stroke:none;" d="M59 78L60 79L59 78z"/>
<path style="fill:#b2b2b2; stroke:none;" d="M60 78L61 79L60 78z"/>
<path style="fill:#606060; stroke:none;" d="M78 78L79 79L78 78M88 78L89 79L88 78z"/>
<path style="fill:#b2b2b2; stroke:none;" d="M89 78L90 79L89 78z"/>
<path style="fill:#606060; stroke:none;" d="M92 78L93 79L92 78M132 78L133 79L132 78M136 78L137 79L136 78z"/>
<path style="fill:#b2b2b2; stroke:none;" d="M147 78L148 79L147 78M164 78L165 79L164 78z"/>
<path style="fill:#909090; stroke:none;" d="M165.667 78.3333L166.333 78.6667L165.667 78.3333z"/>
<path style="fill:#b2b2b2; stroke:none;" d="M2.33333 79.6667L2.66667 80.3333L2.33333 79.6667z"/>
<path style="fill:#606060; stroke:none;" d="M8 79L9 80L8 79z"/>
<path style="fill:#b2b2b2; stroke:none;" d="M79 79L80 80L79 79z"/>
<path style="fill:#606060; stroke:none;" d="M91 79L92 80L91 79z"/>
<path style="fill:#909090; stroke:none;" d="M98 79L99 80L98 79z"/>
<path style="fill:#b2b2b2; stroke:none;" d="M126 79L127 80L126 79z"/>
<path style="fill:#606060; stroke:none;" d="M133.667 79.3333L134.333 79.6667L133.667 79.3333z"/>
<path style="fill:#909090; stroke:none;" d="M145 79L146 80L145 79z"/>
<path style="fill:#606060; stroke:none;" d="M216 79L217 80L216 79M9 80L10 81L9 80M81 80L82 81L81 80M127 80L128 81L127 80z"/>
<path style="fill:#909090; stroke:none;" d="M215 80L216 81L215 80z"/>
<path style="fill:#b2b2b2; stroke:none;" d="M222 80L223 81L222 80z"/>
<path style="fill:#606060; stroke:none;" d="M3 81L4 82L3 81M10 81L11 82L10 81z"/>
<path style="fill:#b2b2b2; stroke:none;" d="M82 81L83 82L82 81z"/>
<path style="fill:#606060; stroke:none;" d="M83 81L84 82L83 81z"/>
<path style="fill:#909090; stroke:none;" d="M142 81L143 82L142 81z"/>
<path style="fill:#606060; stroke:none;" d="M214 81L215 82L214 81z"/>
<path style="fill:#b2b2b2; stroke:none;" d="M3 82L4 83L3 82M84 82L85 83L84 82M96 82L97 83L96 82M128 82L129 83L128 82z"/>
<path style="fill:#606060; stroke:none;" d="M140 82L141 83L140 82M213 82L214 83L213 82z"/>
<path style="fill:#b2b2b2; stroke:none;" d="M221 82L222 83L221 82z"/>
<path style="fill:#909090; stroke:none;" d="M4 83L5 84L4 83z"/>
<path style="fill:#b2b2b2; stroke:none;" d="M13 83L14 84L13 83z"/>
<path style="fill:#909090; stroke:none;" d="M86 83L87 84L86 83z"/>
<path style="fill:#b2b2b2; stroke:none;" d="M95 83L96 84L95 83z"/>
<path style="fill:#606060; stroke:none;" d="M138 83L139 84L138 83z"/>
<path style="fill:#b2b2b2; stroke:none;" d="M139 83L140 84L139 83z"/>
<path style="fill:#909090; stroke:none;" d="M220 83L221 84L220 83M5 84L6 85L5 84z"/>
<path style="fill:#b2b2b2; stroke:none;" d="M14 84L15 85L14 84M88 84L89 85L88 84z"/>
<path style="fill:#606060; stroke:none;" d="M89 84L90 85L89 84z"/>
<path style="fill:#909090; stroke:none;" d="M93 84L94 85L93 84M131 84L132 85L131 84z"/>
<path style="fill:#606060; stroke:none;" d="M136 84L137 85L136 84z"/>
<path style="fill:#b2b2b2; stroke:none;" d="M137 84L138 85L137 84M210 84L211 85L210 84z"/>
<path style="fill:#606060; stroke:none;" d="M219 84L220 85L219 84z"/>
<path style="fill:#909090; stroke:none;" d="M6 85L7 86L6 85M15 85L16 86L15 85z"/>
<path style="fill:#b2b2b2; stroke:none;" d="M209 85L210 86L209 85z"/>
<path style="fill:#909090; stroke:none;" d="M218 85L219 86L218 85z"/>
<path style="fill:#b2b2b2; stroke:none;" d="M7 86L8 87L7 86z"/>
<path style="fill:#909090; stroke:none;" d="M16 86L17 87L16 86M208 86L209 87L208 86z"/>
<path style="fill:#b2b2b2; stroke:none;" d="M217 86L218 87L217 86z"/>
<path style="fill:#606060; stroke:none;" d="M17 87L18 88L17 87M207 87L208 88L207 87z"/>
<path style="fill:#b2b2b2; stroke:none;" d="M216 87L217 88L216 87z"/>
<path style="fill:#606060; stroke:none;" d="M10 88L11 89L10 88M18 88L19 89L18 88M206 88L207 89L206 88M11 89L12 90L11 89M205 89L206 90L205 89M213 89L214 90L213 89M12 90L13 91L12 90z"/>
<path style="fill:#b2b2b2; stroke:none;" d="M21 90L22 91L21 90z"/>
<path style="fill:#606060; stroke:none;" d="M212 90L213 91L212 90z"/>
<path style="fill:#909090; stroke:none;" d="M13 91L14 92L13 91z"/>
<path style="fill:#b2b2b2; stroke:none;" d="M22 91L23 92L22 91M202 91L203 92L202 91z"/>
<path style="fill:#909090; stroke:none;" d="M211 91L212 92L211 91z"/>
<path style="fill:#b2b2b2; stroke:none;" d="M14 92L15 93L14 92z"/>
<path style="fill:#909090; stroke:none;" d="M23 92L24 93L23 92M201 92L202 93L201 92z"/>
<path style="fill:#b2b2b2; stroke:none;" d="M210 92L211 93L210 92M15 93L16 94L15 93z"/>
<path style="fill:#606060; stroke:none;" d="M24 93L25 94L24 93M200 93L201 94L200 93z"/>
<path style="fill:#b2b2b2; stroke:none;" d="M209 93L210 94L209 93z"/>
<path style="fill:#606060; stroke:none;" d="M199 94L200 95L199 94M18 95L19 96L18 95z"/>
<path style="fill:#909090; stroke:none;" d="M27 95L28 96L27 95z"/>
<path style="fill:#b2b2b2; stroke:none;" d="M197 95L198 96L197 95z"/>
<path style="fill:#606060; stroke:none;" d="M19 96L20 97L19 96M196 96L197 97L196 96M205 96L206 97L205 96z"/>
<path style="fill:#909090; stroke:none;" d="M20 97L21 98L20 97M30 97L31 98L30 97M194 97L195 98L194 97M204 97L205 98L204 97z"/>
<path style="fill:#b2b2b2; stroke:none;" d="M21 98L22 99L21 98M32 98L33 99L32 98M192 98L193 99L192 98M203 98L204 99L203 98z"/>
<path style="fill:#606060; stroke:none;" d="M23 99L24 100L23 99z"/>
<path style="fill:#b2b2b2; stroke:none;" d="M34 99L35 100L34 99z"/>
<path style="fill:#606060; stroke:none;" d="M191 99L192 100L191 99M201 99L202 100L201 99z"/>
<path style="fill:#909090; stroke:none;" d="M24 100L25 101L24 100z"/>
<path style="fill:#606060; stroke:none;" d="M35 100L36 101L35 100z"/>
<path style="fill:#b2b2b2; stroke:none;" d="M36 100L37 101L36 100z"/>
<path style="fill:#606060; stroke:none;" d="M189 100L190 101L189 100z"/>
<path style="fill:#909090; stroke:none;" d="M200 100L201 101L200 100z"/>
<path style="fill:#606060; stroke:none;" d="M26 101L27 102L26 101M37 101L38 102L37 101z"/>
<path style="fill:#b2b2b2; stroke:none;" d="M38 101L39 102L38 101M186 101L187 102L186 101z"/>
<path style="fill:#606060; stroke:none;" d="M187 101L188 102L187 101M198 101L199 102L198 101z"/>
<path style="fill:#b2b2b2; stroke:none;" d="M27 102L28 103L27 102z"/>
<path style="fill:#909090; stroke:none;" d="M40 102L41 103L40 102M184 102L185 103L184 102z"/>
<path style="fill:#b2b2b2; stroke:none;" d="M197 102L198 103L197 102z"/>
<path style="fill:#909090; stroke:none;" d="M29 103L30 104L29 103M43 103L44 104L43 103z"/>
<path style="fill:#b2b2b2; stroke:none;" d="M44 103L45 104L44 103M180 103L181 104L180 103z"/>
<path style="fill:#909090; stroke:none;" d="M181 103L182 104L181 103z"/>
<path style="fill:#606060; stroke:none;" d="M195 103L196 104L195 103M31 104L32 105L31 104M59 104L60 105L59 104z"/>
<path style="fill:#b2b2b2; stroke:none;" d="M60 104L61 105L60 104M164 104L165 105L164 104z"/>
<path style="fill:#606060; stroke:none;" d="M165 104L166 105L165 104M193 104L194 105L193 104z"/>
<path style="fill:#b2b2b2; stroke:none;" d="M32 105L33 106L32 105z"/>
<path style="fill:#606060; stroke:none;" d="M33 105L34 106L33 105z"/>
<path style="fill:#909090; stroke:none;" d="M61 105L62 106L61 105z"/>
<path style="fill:#b2b2b2; stroke:none;" d="M163 105L164 106L163 105z"/>
<path style="fill:#606060; stroke:none;" d="M191 105L192 106L191 105z"/>
<path style="fill:#b2b2b2; stroke:none;" d="M192 105L193 106L192 105M34 106L35 107L34 106z"/>
<path style="fill:#606060; stroke:none;" d="M35 106L36 107L35 106M189 106L190 107L189 106z"/>
<path style="fill:#b2b2b2; stroke:none;" d="M190 106L191 107L190 106z"/>
<path style="fill:#909090; stroke:none;" d="M37 107L38 108L37 107M62 107L63 108L62 107z"/>
<path style="fill:#b2b2b2; stroke:none;" d="M162 107L163 108L162 107z"/>
<path style="fill:#909090; stroke:none;" d="M187 107L188 108L187 107z"/>
<path style="fill:#b2b2b2; stroke:none;" d="M39 108L40 109L39 108z"/>
<path style="fill:#909090; stroke:none;" d="M40 108L41 109L40 108z"/>
<path style="fill:#606060; stroke:none;" d="M62.3333 108.667L62.6667 109.333L62.3333 108.667z"/>
<path style="fill:#909090; stroke:none;" d="M162 108L163 109L162 108M184 108L185 109L184 108z"/>
<path style="fill:#b2b2b2; stroke:none;" d="M185 108L186 109L185 108M43 109L44 110L43 109z"/>
<path style="fill:#909090; stroke:none;" d="M44 109L45 110L44 109z"/>
<path style="fill:#606060; stroke:none;" d="M45.6667 109.333L46.3333 109.667L45.6667 109.333M162.333 109.667L162.667 110.333L162.333 109.667M178 109L179 110L178 109z"/>
<path style="fill:#909090; stroke:none;" d="M179.667 109.333L180.333 109.667L179.667 109.333z"/>
<path style="fill:#b2b2b2; stroke:none;" d="M181 109L182 110L181 109z"/>
<path style="fill:#606060; stroke:none;" d="M57.3333 111.667L57.6667 112.333L57.3333 111.667z"/>
<path style="fill:#b2b2b2; stroke:none;" d="M63 112L64 113L63 112z"/>
<path style="fill:#606060; stroke:none;" d="M167 112L168 113L167 112z"/>
<path style="fill:#b2b2b2; stroke:none;" d="M57 113L58 114L57 113z"/>
<path style="fill:#909090; stroke:none;" d="M63 113L64 114L63 113z"/>
<path style="fill:#b2b2b2; stroke:none;" d="M161 113L162 114L161 113z"/>
<path style="fill:#909090; stroke:none;" d="M167 113L168 114L167 113z"/>
<path style="fill:#606060; stroke:none;" d="M161 114L162 115L161 114z"/>
<path style="fill:#b2b2b2; stroke:none;" d="M167 114L168 115L167 114M64 115L65 116L64 115M160 115L161 116L160 115z"/>
<path style="fill:#909090; stroke:none;" d="M58 116L59 117L58 116z"/>
<path style="fill:#606060; stroke:none;" d="M160 116L161 117L160 116M166 116L167 117L166 116z"/>
<path style="fill:#909090; stroke:none;" d="M65 117L66 118L65 117z"/>
<path style="fill:#b2b2b2; stroke:none;" d="M159 117L160 118L159 117z"/>
<path style="fill:#909090; stroke:none;" d="M59 118L60 119L59 118z"/>
<path style="fill:#606060; stroke:none;" d="M165 118L166 119L165 118M158 119L159 120L158 119z"/>
<path style="fill:#b2b2b2; stroke:none;" d="M60 120L61 121L60 120z"/>
<path style="fill:#606060; stroke:none;" d="M67 120L68 121L67 120z"/>
<path style="fill:#909090; stroke:none;" d="M157 120L158 121L157 120M164 120L165 121L164 120z"/>
<path style="fill:#606060; stroke:none;" d="M61 121L62 122L61 121z"/>
<path style="fill:#b2b2b2; stroke:none;" d="M68 121L69 122L68 121M156 121L157 122L156 121M69 122L70 123L69 122M163 122L164 123L163 122M62 123L63 124L62 123z"/>
<path style="fill:#909090; stroke:none;" d="M162 123L163 124L162 123z"/>
<path style="fill:#606060; stroke:none;" d="M63 124L64 125L63 124M154 124L155 125L154 124M161 124L162 125L161 124M64 125L65 126L64 125M71 125L72 126L71 125M153 125L154 126L153 125M72 126L73 127L72 126z"/>
<path style="fill:#909090; stroke:none;" d="M152 126L153 127L152 126M73 127L74 128L73 127z"/>
<path style="fill:#b2b2b2; stroke:none;" d="M151 127L152 128L151 127M159 127L160 128L159 127M66 128L67 129L66 128M74 128L75 129L74 128M150 128L151 129L150 128M158 128L159 129L158 128M67 129L68 130L67 129z"/>
<path style="fill:#909090; stroke:none;" d="M157 129L158 130L157 129M68 130L69 131L68 130z"/>
<path style="fill:#606060; stroke:none;" d="M75 130L76 131L75 130M149 130L150 131L149 130M156 130L157 131L156 130M69 131L70 132L69 131z"/>
<path style="fill:#b2b2b2; stroke:none;" d="M76 131L77 132L76 131z"/>
<path style="fill:#606060; stroke:none;" d="M155 131L156 132L155 131M70 132L71 133L70 132z"/>
<path style="fill:#909090; stroke:none;" d="M76 132L77 133L76 132z"/>
<path style="fill:#b2b2b2; stroke:none;" d="M148 132L149 133L148 132z"/>
<path style="fill:#606060; stroke:none;" d="M148 133L149 134L148 133z"/>
<path style="fill:#b2b2b2; stroke:none;" d="M154 133L155 134L154 133z"/>
<path style="fill:#909090; stroke:none;" d="M71 135L72 136L71 135z"/>
<path style="fill:#606060; stroke:none;" d="M77 135L78 136L77 135z"/>
<path style="fill:#909090; stroke:none;" d="M147 135L148 136L147 135z"/>
<path style="fill:#606060; stroke:none;" d="M153 135L154 136L153 135z"/>
<path style="fill:#b2b2b2; stroke:none;" d="M153 136L154 137L153 136M78 137L79 138L78 137M146 137L147 138L146 137M72 138L73 139L72 138z"/>
<path style="fill:#606060; stroke:none;" d="M78 138L79 139L78 138M146 138L147 139L146 138z"/>
<path style="fill:#909090; stroke:none;" d="M152 138L153 139L152 138z"/>
<path style="fill:#b2b2b2; stroke:none;" d="M79 139L80 140L79 139z"/>
<path style="fill:#606060; stroke:none;" d="M73 140L74 141L73 140M79 140L80 141L79 140M145 140L146 141L145 140M151 140L152 141L151 140z"/>
<path style="fill:#b2b2b2; stroke:none;" d="M80 141L81 142L80 141M151 141L152 142L151 141z"/>
<path style="fill:#606060; stroke:none;" d="M74 142L75 143L74 142M80 142L81 143L80 142M144 142L145 143L144 142z"/>
<path style="fill:#b2b2b2; stroke:none;" d="M74 143L75 144L74 143M81 143L82 144L81 143M150 143L151 144L150 143z"/>
<path style="fill:#606060; stroke:none;" d="M75 144L76 145L75 144z"/>
<path style="fill:#909090; stroke:none;" d="M116 144L117 145L116 144z"/>
<path style="fill:#606060; stroke:none;" d="M143 144L144 145L143 144M149 144L150 145L149 144z"/>
<path style="fill:#b2b2b2; stroke:none;" d="M82 145L83 146L82 145z"/>
<path style="fill:#030303; stroke:none;" d="M116 145L104 183L92 151L81 181L88 181L92 170L104 202L116 168L127 210L128 210C128.844 203.735 130.999 185.705 136.43 182.028C139.161 180.178 143.864 181 147 181L146 175L130 175L128 184L127 184L116 145z"/>
<path style="fill:#b2b2b2; stroke:none;" d="M149 145L150 146L149 145z"/>
<path style="fill:#606060; stroke:none;" d="M76 146L77 147L76 146M82 146L83 147L82 146z"/>
<path style="fill:#909090; stroke:none;" d="M115 146L116 147L115 146M142 146L143 147L142 146z"/>
<path style="fill:#606060; stroke:none;" d="M148 146L149 147L148 146M115 147L116 148L115 147z"/>
<path style="fill:#b2b2b2; stroke:none;" d="M117 147L118 148L117 147M148 147L149 148L148 147z"/>
<path style="fill:#606060; stroke:none;" d="M77 148L78 149L77 148M117 148L118 149L117 148z"/>
<path style="fill:#909090; stroke:none;" d="M77 149L78 150L77 149z"/>
<path style="fill:#b2b2b2; stroke:none;" d="M83.3333 149.667L83.6667 150.333L83.3333 149.667M114 149L115 150L114 149z"/>
<path style="fill:#606060; stroke:none;" d="M147 149L148 150L147 149z"/>
<path style="fill:#b2b2b2; stroke:none;" d="M77.3333 150.667L77.6667 151.333L77.3333 150.667M91 150L92 151L91 150z"/>
<path style="fill:#909090; stroke:none;" d="M92 150L93 151L92 150z"/>
<path style="fill:#606060; stroke:none;" d="M114 150L115 151L114 150z"/>
<path style="fill:#b2b2b2; stroke:none;" d="M141.333 150.667L141.667 151.333L141.333 150.667z"/>
<path style="fill:#909090; stroke:none;" d="M147 150L148 151L147 150M83 151L84 152L83 151z"/>
<path style="fill:#606060; stroke:none;" d="M91 151L92 152L91 151z"/>
<path style="fill:#b2b2b2; stroke:none;" d="M118 151L119 152L118 151M147.333 151.667L147.667 152.333L147.333 151.667z"/>
<path style="fill:#606060; stroke:none;" d="M83 152L84 153L83 152z"/>
<path style="fill:#b2b2b2; stroke:none;" d="M93 152L94 153L93 152M113 152L114 153L113 152z"/>
<path style="fill:#606060; stroke:none;" d="M118 152L119 153L118 152M141.333 152.667L141.667 153.333L141.333 152.667z"/>
<path style="fill:#b2b2b2; stroke:none;" d="M90 153L91 154L90 153z"/>
<path style="fill:#909090; stroke:none;" d="M93 153L94 154L93 153z"/>
<path style="fill:#606060; stroke:none;" d="M113 153L114 154L113 153M78.3333 154.667L78.6667 155.333L78.3333 154.667M90 154L91 155L90 154z"/>
<path style="fill:#b2b2b2; stroke:none;" d="M119 154L120 155L119 154M94 155L95 156L94 155M112 155L113 156L112 155z"/>
<path style="fill:#909090; stroke:none;" d="M119 155L120 156L119 155z"/>
<path style="fill:#606060; stroke:none;" d="M146.333 155.667L146.667 156.333L146.333 155.667z"/>
<path style="fill:#909090; stroke:none;" d="M78 156L79 157L78 156z"/>
<path style="fill:#b2b2b2; stroke:none;" d="M84 156L85 157L84 156z"/>
<path style="fill:#909090; stroke:none;" d="M89 156L90 157L89 156z"/>
<path style="fill:#606060; stroke:none;" d="M94 156L95 157L94 156M112 156L113 157L112 156M119 156L120 157L119 156z"/>
<path style="fill:#b2b2b2; stroke:none;" d="M140 156L141 157L140 156M78 157L79 158L78 157z"/>
<path style="fill:#606060; stroke:none;" d="M81.6667 157.333L82.3333 157.667L81.6667 157.333z"/>
<path style="fill:#b2b2b2; stroke:none;" d="M83 157L84 158L83 157M141 157L142 158L141 157z"/>
<path style="fill:#909090; stroke:none;" d="M142 157L143 158L142 157z"/>
<path style="fill:#606060; stroke:none;" d="M143 157L144 158L143 157z"/>
<path style="fill:#b2b2b2; stroke:none;" d="M146 157L147 158L146 157M88 158L89 159L88 158M95 158L96 159L95 158M111 158L112 159L111 158M120 158L121 159L120 158z"/>
<path style="fill:#909090; stroke:none;" d="M88 159L89 160L88 159z"/>
<path style="fill:#606060; stroke:none;" d="M95 159L96 160L95 159M111 159L112 160L111 159M120 159L121 160L120 159z"/>
<path style="fill:#b2b2b2; stroke:none;" d="M87 161L88 162L87 161M96 161L97 162L96 161M110 161L111 162L110 161z"/>
<path style="fill:#606060; stroke:none;" d="M87 162L88 163L87 162M96 162L97 163L96 162z"/>
<path style="fill:#909090; stroke:none;" d="M110 162L111 163L110 162z"/>
<path style="fill:#b2b2b2; stroke:none;" d="M121 162L122 163L121 162z"/>
<path style="fill:#606060; stroke:none;" d="M121 163L122 164L121 163z"/>
<path style="fill:#b2b2b2; stroke:none;" d="M86 164L87 165L86 164M97 164L98 165L97 164M109 164L110 165L109 164z"/>
<path style="fill:#606060; stroke:none;" d="M86 165L87 166L86 165M97 165L98 166L97 165z"/>
<path style="fill:#909090; stroke:none;" d="M109 165L110 166L109 165z"/>
<path style="fill:#b2b2b2; stroke:none;" d="M122 165L123 166L122 165z"/>
<path style="fill:#909090; stroke:none;" d="M122 166L123 167L122 166M85 167L86 168L85 167z"/>
<path style="fill:#b2b2b2; stroke:none;" d="M98 167L99 168L98 167z"/>
<path style="fill:#606060; stroke:none;" d="M122 167L123 168L122 167M98 168L99 169L98 168z"/>
<path style="fill:#909090; stroke:none;" d="M108 168L109 169L108 168z"/>
<path style="fill:#606060; stroke:none;" d="M115 168L116 169L115 168M116 169L117 170L116 169z"/>
<path style="fill:#b2b2b2; stroke:none;" d="M123 169L124 170L123 169z"/>
<path style="fill:#909090; stroke:none;" d="M84 170L85 171L84 170M91 170L92 171L91 170z"/>
<path style="fill:#606060; stroke:none;" d="M92 170L93 171L92 170z"/>
<path style="fill:#909090; stroke:none;" d="M99 170L100 171L99 170z"/>
<path style="fill:#b2b2b2; stroke:none;" d="M116 170L117 171L116 170z"/>
<path style="fill:#606060; stroke:none;" d="M123 170L124 171L123 170z"/>
<path style="fill:#b2b2b2; stroke:none;" d="M91.6667 171.333L92.3333 171.667L91.6667 171.333z"/>
<path style="fill:#909090; stroke:none;" d="M107 171L108 172L107 171z"/>
<path style="fill:#606060; stroke:none;" d="M114 171L115 172L114 171z"/>
<path style="fill:#b2b2b2; stroke:none;" d="M83 172L84 173L83 172z"/>
<path style="fill:#606060; stroke:none;" d="M107 172L108 173L107 172z"/>
<path style="fill:#b2b2b2; stroke:none;" d="M114 172L115 173L114 172z"/>
<path style="fill:#606060; stroke:none;" d="M83 173L84 174L83 173z"/>
<path style="fill:#909090; stroke:none;" d="M90 173L91 174L90 173z"/>
<path style="fill:#606060; stroke:none;" d="M93 173L94 174L93 173z"/>
<path style="fill:#909090; stroke:none;" d="M100 173L101 174L100 173M117 173L118 174L117 173z"/>
<path style="fill:#b2b2b2; stroke:none;" d="M124 173L125 174L124 173M80 174L81 175L80 174z"/>
<path style="fill:#606060; stroke:none;" d="M81.6667 174.333L82.3333 174.667L81.6667 174.333z"/>
<path style="fill:#b2b2b2; stroke:none;" d="M93 174L94 175L93 174M106 174L107 175L106 174z"/>
<path style="fill:#606060; stroke:none;" d="M113 174L114 175L113 174z"/>
<path style="fill:#b2b2b2; stroke:none;" d="M117 174L118 175L117 174z"/>
<path style="fill:#606060; stroke:none;" d="M124 174L125 175L124 174M130 174L130 175L146 175L146 180C149.171 171.655 134.756 174 130 174z"/>
<path style="fill:#909090; stroke:none;" d="M146 174L147 175L146 174M80 175L80 181L81 181L80 175z"/>
<path style="fill:#b2b2b2; stroke:none;" d="M101 175L102 176L101 175z"/>
<path style="fill:#606060; stroke:none;" d="M106 175L107 176L106 175z"/>
<path style="fill:#b2b2b2; stroke:none;" d="M113 175L114 176L113 175M129 175L130 176L129 175M89 176L90 177L89 176z"/>
<path style="fill:#909090; stroke:none;" d="M94 176L95 177L94 176M101 176L102 177L101 176z"/>
<path style="fill:#606060; stroke:none;" d="M118 176L119 177L118 176z"/>
<path style="fill:#b2b2b2; stroke:none;" d="M125 176L126 177L125 176z"/>
<path style="fill:#909090; stroke:none;" d="M129 176L130 177L129 176z"/>
<path style="fill:#b2b2b2; stroke:none;" d="M94 177L95 178L94 177M105 177L106 178L105 177z"/>
<path style="fill:#606060; stroke:none;" d="M112 177L113 178L112 177z"/>
<path style="fill:#909090; stroke:none;" d="M118 177L119 178L118 177M125 177L126 178L125 177z"/>
<path style="fill:#606060; stroke:none;" d="M129 177L130 178L129 177M88 178L89 179L88 178z"/>
<path style="fill:#b2b2b2; stroke:none;" d="M102 178L103 179L102 178z"/>
<path style="fill:#606060; stroke:none;" d="M105 178L106 179L105 178z"/>
<path style="fill:#b2b2b2; stroke:none;" d="M112 178L113 179L112 178M118 178L119 179L118 178M88 179L89 180L88 179z"/>
<path style="fill:#909090; stroke:none;" d="M95 179L96 180L95 179z"/>
<path style="fill:#606060; stroke:none;" d="M102 179L103 180L102 179z"/>
<path style="fill:#b2b2b2; stroke:none;" d="M128 179L129 180L128 179M104 180L103 182L104 180z"/>
<path style="fill:#606060; stroke:none;" d="M111 180L112 181L111 180M119 180L120 181L119 180z"/>
<path style="fill:#b2b2b2; stroke:none;" d="M126 180L127 181L126 180z"/>
<path style="fill:#909090; stroke:none;" d="M128 180L129 181L128 180z"/>
<path style="fill:#606060; stroke:none;" d="M104 181L105 182L104 181z"/>
<path style="fill:#b2b2b2; stroke:none;" d="M111 181L112 182L111 181M119 181L120 182L119 181z"/>
<path style="fill:#606060; stroke:none;" d="M126 181L127 182L126 181z"/>
<path style="fill:#b2b2b2; stroke:none;" d="M135 181L136 182L135 181z"/>
<path style="fill:#909090; stroke:none;" d="M96 182L97 183L96 182z"/>
<path style="fill:#606060; stroke:none;" d="M103 182L104 183L103 182M110 183L111 184L110 183z"/>
<path style="fill:#909090; stroke:none;" d="M127 183L128 184L127 183z"/>
<path style="fill:#606060; stroke:none;" d="M134 183L135 184L134 183M97 184L98 185L97 184z"/>
<path style="fill:#b2b2b2; stroke:none;" d="M110 184L111 185L110 184z"/>
<path style="fill:#909090; stroke:none;" d="M120 184L121 185L120 184z"/>
<path style="fill:#b2b2b2; stroke:none;" d="M134 184L135 185L134 184M97 185L98 186L97 185M120 185L121 186L120 185z"/>
<path style="fill:#606060; stroke:none;" d="M109 186L110 187L109 186M98 187L99 188L98 187z"/>
<path style="fill:#909090; stroke:none;" d="M109 187L110 188L109 187z"/>
<path style="fill:#606060; stroke:none;" d="M121 187L122 188L121 187M133 187L134 188L133 187z"/>
<path style="fill:#b2b2b2; stroke:none;" d="M98 188L99 189L98 188z"/>
<path style="fill:#909090; stroke:none;" d="M121 188L122 189L121 188z"/>
<path style="fill:#b2b2b2; stroke:none;" d="M133 188L134 189L133 188M121 189L122 190L121 189z"/>
<path style="fill:#606060; stroke:none;" d="M99 190L100 191L99 190z"/>
<path style="fill:#909090; stroke:none;" d="M108 190L109 191L108 190z"/>
<path style="fill:#b2b2b2; stroke:none;" d="M99 191L100 192L99 191z"/>
<path style="fill:#606060; stroke:none;" d="M122 191L123 192L122 191z"/>
<path style="fill:#909090; stroke:none;" d="M132 191L133 192L132 191z"/>
<path style="fill:#b2b2b2; stroke:none;" d="M122 192L123 193L122 192M132 192L133 193L132 192z"/>
<path style="fill:#606060; stroke:none;" d="M100 193L101 194L100 193z"/>
<path style="fill:#909090; stroke:none;" d="M107 193L108 194L107 193z"/>
<path style="fill:#b2b2b2; stroke:none;" d="M100 194L101 195L100 194M107 194L108 195L107 194z"/>
<path style="fill:#909090; stroke:none;" d="M123 195L124 196L123 195M131 195L132 196L131 195z"/>
<path style="fill:#606060; stroke:none;" d="M101 196L102 197L101 196z"/>
<path style="fill:#909090; stroke:none;" d="M106 196L107 197L106 196z"/>
<path style="fill:#b2b2b2; stroke:none;" d="M123 196L124 197L123 196M131 196L132 197L131 196M101 197L102 198L101 197M106 197L107 198L106 197z"/>
<path style="fill:#606060; stroke:none;" d="M124 198L125 199L124 198M130 198L131 199L130 198z"/>
<path style="fill:#909090; stroke:none;" d="M102 199L103 200L102 199z"/>
<path style="fill:#606060; stroke:none;" d="M105 199L106 200L105 199z"/>
<path style="fill:#909090; stroke:none;" d="M124 199L125 200L124 199M130 199L131 200L130 199z"/>
<path style="fill:#b2b2b2; stroke:none;" d="M102 200L103 201L102 200M105 200L106 201L105 200M124 200L125 201L124 200M130 200L131 201L130 200z"/>
<path style="fill:#909090; stroke:none;" d="M103 202L104 203L103 202z"/>
<path style="fill:#606060; stroke:none;" d="M104 202L105 203L104 202M125 202L126 203L125 202M129 202L130 203L129 202z"/>
<path style="fill:#b2b2b2; stroke:none;" d="M103.667 203.333L104.333 203.667L103.667 203.333M125 203L126 204L125 203z"/>
<path style="fill:#909090; stroke:none;" d="M129 203L130 204L129 203z"/>
<path style="fill:#b2b2b2; stroke:none;" d="M129 204L130 205L129 204z"/>
<path style="fill:#909090; stroke:none;" d="M126 206L127 207L126 206z"/>
<path style="fill:#606060; stroke:none;" d="M128 206L129 207L128 206z"/>
<path style="fill:#b2b2b2; stroke:none;" d="M126 207L127 208L126 207z"/>
<path style="fill:#909090; stroke:none;" d="M128 207L129 208L128 207z"/>
<path style="fill:#b2b2b2; stroke:none;" d="M128 208L129 209L128 208M127 210L128 211L127 210z"/>
</svg>
